<?xml version="1.0" encoding="UTF-8" standalone="no"?>
<!DOCTYPE svg PUBLIC "-//W3C//DTD SVG 1.1//EN"
 "http://www.w3.org/Graphics/SVG/1.1/DTD/svg11.dtd">
<!-- Generated by graphviz version 2.43.0 (0)
 -->
<!-- Title: /home/ladeira/Documents/src/onion/onion/NonCopyable.hpp Pages: 1 -->
<svg width="333pt" height="184pt"
 viewBox="0.00 0.00 332.50 184.00" xmlns="http://www.w3.org/2000/svg" xmlns:xlink="http://www.w3.org/1999/xlink">
<g id="graph0" class="graph" transform="scale(1 1) rotate(0) translate(4 180)">
<title>/home/ladeira/Documents/src/onion/onion/NonCopyable.hpp</title>
<polygon fill="white" stroke="transparent" points="-4,4 -4,-180 328.5,-180 328.5,4 -4,4"/>
<!-- Node1 -->
<g id="node1" class="node">
<title>Node1</title>
<g id="a_node1"><a xlink:title=" ">
<polygon fill="#bfbfbf" stroke="black" points="68,-145.5 68,-175.5 251,-175.5 251,-145.5 68,-145.5"/>
<text text-anchor="start" x="76" y="-163.5" font-family="Helvetica,sans-Serif" font-size="10.00">/home/ladeira/Documents</text>
<text text-anchor="middle" x="159.5" y="-152.5" font-family="Helvetica,sans-Serif" font-size="10.00">/src/onion/onion/NonCopyable.hpp</text>
</a>
</g>
</g>
<!-- Node2 -->
<g id="node2" class="node">
<title>Node2</title>
<g id="a_node2"><a xlink:href="create_8hpp.html" target="_top" xlink:title=" ">
<polygon fill="white" stroke="black" points="0,-78.5 0,-108.5 149,-108.5 149,-78.5 0,-78.5"/>
<text text-anchor="start" x="8" y="-96.5" font-family="Helvetica,sans-Serif" font-size="10.00">/home/ladeira/Documents</text>
<text text-anchor="middle" x="74.5" y="-85.5" font-family="Helvetica,sans-Serif" font-size="10.00">/src/onion/onion/create.hpp</text>
</a>
</g>
</g>
<!-- Node1&#45;&gt;Node2 -->
<g id="edge1" class="edge">
<title>Node1&#45;&gt;Node2</title>
<path fill="none" stroke="midnightblue" d="M132.91,-139.17C119.91,-129.23 104.6,-117.51 92.91,-108.58"/>
<polygon fill="midnightblue" stroke="midnightblue" points="130.99,-142.1 141.06,-145.4 135.24,-136.54 130.99,-142.1"/>
</g>
<!-- Node4 -->
<g id="node4" class="node">
<title>Node4</title>
<g id="a_node4"><a xlink:href="_random_8hpp.html" target="_top" xlink:title="This header introduces random number generation facilities.">
<polygon fill="white" stroke="black" points="166.5,-78.5 166.5,-108.5 324.5,-108.5 324.5,-78.5 166.5,-78.5"/>
<text text-anchor="start" x="174.5" y="-96.5" font-family="Helvetica,sans-Serif" font-size="10.00">/home/ladeira/Documents</text>
<text text-anchor="middle" x="245.5" y="-85.5" font-family="Helvetica,sans-Serif" font-size="10.00">/src/onion/onion/Random.hpp</text>
</a>
</g>
</g>
<!-- Node1&#45;&gt;Node4 -->
<g id="edge3" class="edge">
<title>Node1&#45;&gt;Node4</title>
<path fill="none" stroke="midnightblue" d="M186.4,-139.17C199.55,-129.23 215.05,-117.51 226.88,-108.58"/>
<polygon fill="midnightblue" stroke="midnightblue" points="184.03,-136.57 178.16,-145.4 188.25,-142.16 184.03,-136.57"/>
</g>
<!-- Node3 -->
<g id="node3" class="node">
<title>Node3</title>
<g id="a_node3"><a xlink:href="create__random_8hpp.html" target="_top" xlink:title=" ">
<polygon fill="white" stroke="black" points="3,-0.5 3,-41.5 146,-41.5 146,-0.5 3,-0.5"/>
<text text-anchor="start" x="11" y="-29.5" font-family="Helvetica,sans-Serif" font-size="10.00">/home/ladeira/Documents</text>
<text text-anchor="start" x="11" y="-18.5" font-family="Helvetica,sans-Serif" font-size="10.00">/src/onion/cops/tsp/array</text>
<text text-anchor="middle" x="74.5" y="-7.5" font-family="Helvetica,sans-Serif" font-size="10.00">/create_random.hpp</text>
</a>
</g>
</g>
<!-- Node2&#45;&gt;Node3 -->
<g id="edge2" class="edge">
<title>Node2&#45;&gt;Node3</title>
<path fill="none" stroke="midnightblue" d="M74.5,-67.98C74.5,-59.35 74.5,-49.76 74.5,-41.59"/>
<polygon fill="midnightblue" stroke="midnightblue" points="71,-68.23 74.5,-78.23 78,-68.23 71,-68.23"/>
</g>
<!-- Node5 -->
<g id="node5" class="node">
<title>Node5</title>
<g id="a_node5"><a xlink:href="_random_8cpp.html" target="_top" xlink:title="Implementation of the global RandomEngine object.">
<polygon fill="white" stroke="black" points="166.5,-6 166.5,-36 324.5,-36 324.5,-6 166.5,-6"/>
<text text-anchor="start" x="174.5" y="-24" font-family="Helvetica,sans-Serif" font-size="10.00">/home/ladeira/Documents</text>
<text text-anchor="middle" x="245.5" y="-13" font-family="Helvetica,sans-Serif" font-size="10.00">/src/onion/onion/Random.cpp</text>
</a>
</g>
</g>
<!-- Node4&#45;&gt;Node5 -->
<g id="edge4" class="edge">
<title>Node4&#45;&gt;Node5</title>
<path fill="none" stroke="midnightblue" d="M245.5,-68.23C245.5,-57.57 245.5,-45.41 245.5,-36.25"/>
<polygon fill="midnightblue" stroke="midnightblue" points="242,-68.23 245.5,-78.23 249,-68.23 242,-68.23"/>
</g>
</g>
</svg>
