<?xml version="1.0" encoding="UTF-8" standalone="no"?>
<!DOCTYPE svg PUBLIC "-//W3C//DTD SVG 1.1//EN"
 "http://www.w3.org/Graphics/SVG/1.1/DTD/svg11.dtd">
<!-- Generated by graphviz version 2.43.0 (0)
 -->
<!-- Title: /home/ladeira/Documents/src/onion/onion/Random.cpp Pages: 1 -->
<svg width="373pt" height="151pt"
 viewBox="0.00 0.00 372.50 151.00" xmlns="http://www.w3.org/2000/svg" xmlns:xlink="http://www.w3.org/1999/xlink">
<g id="graph0" class="graph" transform="scale(1 1) rotate(0) translate(4 147)">
<title>/home/ladeira/Documents/src/onion/onion/Random.cpp</title>
<polygon fill="white" stroke="transparent" points="-4,4 -4,-147 368.5,-147 368.5,4 -4,4"/>
<!-- Node1 -->
<g id="node1" class="node">
<title>Node1</title>
<g id="a_node1"><a xlink:title="Implementation of the global RandomEngine object.">
<polygon fill="#bfbfbf" stroke="black" points="132.5,-112.5 132.5,-142.5 290.5,-142.5 290.5,-112.5 132.5,-112.5"/>
<text text-anchor="start" x="140.5" y="-130.5" font-family="Helvetica,sans-Serif" font-size="10.00">/home/ladeira/Documents</text>
<text text-anchor="middle" x="211.5" y="-119.5" font-family="Helvetica,sans-Serif" font-size="10.00">/src/onion/onion/Random.cpp</text>
</a>
</g>
</g>
<!-- Node2 -->
<g id="node2" class="node">
<title>Node2</title>
<g id="a_node2"><a xlink:href="_random_8hpp.html" target="_top" xlink:title="This header introduces random number generation facilities.">
<polygon fill="white" stroke="black" points="90.5,-56.5 90.5,-75.5 198.5,-75.5 198.5,-56.5 90.5,-56.5"/>
<text text-anchor="middle" x="144.5" y="-63.5" font-family="Helvetica,sans-Serif" font-size="10.00">onion/Random.hpp</text>
</a>
</g>
</g>
<!-- Node1&#45;&gt;Node2 -->
<g id="edge1" class="edge">
<title>Node1&#45;&gt;Node2</title>
<path fill="none" stroke="midnightblue" d="M195.62,-112.4C185.48,-103.4 172.34,-91.72 161.91,-82.47"/>
<polygon fill="midnightblue" stroke="midnightblue" points="164.05,-79.68 154.25,-75.66 159.4,-84.92 164.05,-79.68"/>
</g>
<!-- Node5 -->
<g id="node5" class="node">
<title>Node5</title>
<g id="a_node5"><a xlink:href="_random_s_t_l_8hpp.html" target="_top" xlink:title="Implementation of the Random class inteface.">
<polygon fill="white" stroke="black" points="217,-56.5 217,-75.5 342,-75.5 342,-56.5 217,-56.5"/>
<text text-anchor="middle" x="279.5" y="-63.5" font-family="Helvetica,sans-Serif" font-size="10.00">onion/RandomSTL.hpp</text>
</a>
</g>
</g>
<!-- Node1&#45;&gt;Node5 -->
<g id="edge4" class="edge">
<title>Node1&#45;&gt;Node5</title>
<path fill="none" stroke="midnightblue" d="M227.62,-112.4C237.9,-103.4 251.25,-91.72 261.83,-82.47"/>
<polygon fill="midnightblue" stroke="midnightblue" points="264.38,-84.88 269.61,-75.66 259.77,-79.61 264.38,-84.88"/>
</g>
<!-- Node3 -->
<g id="node3" class="node">
<title>Node3</title>
<g id="a_node3"><a xlink:href="_random_engine_8hpp.html" target="_top" xlink:title="Declaration of the RandomEngine interface.">
<polygon fill="white" stroke="black" points="151,-0.5 151,-19.5 292,-19.5 292,-0.5 151,-0.5"/>
<text text-anchor="middle" x="221.5" y="-7.5" font-family="Helvetica,sans-Serif" font-size="10.00">onion/RandomEngine.hpp</text>
</a>
</g>
</g>
<!-- Node2&#45;&gt;Node3 -->
<g id="edge2" class="edge">
<title>Node2&#45;&gt;Node3</title>
<path fill="none" stroke="midnightblue" d="M156.87,-56.32C168.66,-48.06 186.63,-35.45 200.64,-25.63"/>
<polygon fill="midnightblue" stroke="midnightblue" points="202.98,-28.26 209.16,-19.65 198.96,-22.53 202.98,-28.26"/>
</g>
<!-- Node4 -->
<g id="node4" class="node">
<title>Node4</title>
<g id="a_node4"><a xlink:href="_non_copyable_8hpp.html" target="_top" xlink:title=" ">
<polygon fill="white" stroke="black" points="0,-0.5 0,-19.5 133,-19.5 133,-0.5 0,-0.5"/>
<text text-anchor="middle" x="66.5" y="-7.5" font-family="Helvetica,sans-Serif" font-size="10.00">onion/NonCopyable.hpp</text>
</a>
</g>
</g>
<!-- Node2&#45;&gt;Node4 -->
<g id="edge3" class="edge">
<title>Node2&#45;&gt;Node4</title>
<path fill="none" stroke="midnightblue" d="M131.97,-56.32C119.91,-47.98 101.47,-35.21 87.23,-25.35"/>
<polygon fill="midnightblue" stroke="midnightblue" points="89.22,-22.47 79,-19.65 85.23,-28.22 89.22,-22.47"/>
</g>
<!-- Node5&#45;&gt;Node3 -->
<g id="edge5" class="edge">
<title>Node5&#45;&gt;Node3</title>
<path fill="none" stroke="midnightblue" d="M270.18,-56.32C261.61,-48.34 248.69,-36.31 238.31,-26.65"/>
<polygon fill="midnightblue" stroke="midnightblue" points="240.69,-24.09 230.99,-19.83 235.92,-29.21 240.69,-24.09"/>
</g>
<!-- Node6 -->
<g id="node6" class="node">
<title>Node6</title>
<g id="a_node6"><a xlink:title=" ">
<polygon fill="white" stroke="#bfbfbf" points="310.5,-0.5 310.5,-19.5 364.5,-19.5 364.5,-0.5 310.5,-0.5"/>
<text text-anchor="middle" x="337.5" y="-7.5" font-family="Helvetica,sans-Serif" font-size="10.00">random</text>
</a>
</g>
</g>
<!-- Node5&#45;&gt;Node6 -->
<g id="edge6" class="edge">
<title>Node5&#45;&gt;Node6</title>
<path fill="none" stroke="midnightblue" d="M288.82,-56.32C297.39,-48.34 310.31,-36.31 320.69,-26.65"/>
<polygon fill="midnightblue" stroke="midnightblue" points="323.08,-29.21 328.01,-19.83 318.31,-24.09 323.08,-29.21"/>
</g>
</g>
</svg>
