<?xml version="1.0" encoding="UTF-8" standalone="no"?>
<!DOCTYPE svg PUBLIC "-//W3C//DTD SVG 1.1//EN"
 "http://www.w3.org/Graphics/SVG/1.1/DTD/svg11.dtd">
<!-- Generated by graphviz version 2.43.0 (0)
 -->
<!-- Title: /home/ladeira/Documents/src/onion/onion/RandomEngine.hpp Pages: 1 -->
<svg width="578pt" height="173pt"
 viewBox="0.00 0.00 578.00 173.00" xmlns="http://www.w3.org/2000/svg" xmlns:xlink="http://www.w3.org/1999/xlink">
<g id="graph0" class="graph" transform="scale(1 1) rotate(0) translate(4 169)">
<title>/home/ladeira/Documents/src/onion/onion/RandomEngine.hpp</title>
<polygon fill="white" stroke="transparent" points="-4,4 -4,-169 574,-169 574,4 -4,4"/>
<!-- Node1 -->
<g id="node1" class="node">
<title>Node1</title>
<g id="a_node1"><a xlink:title="Declaration of the RandomEngine interface.">
<polygon fill="#bfbfbf" stroke="black" points="180.5,-134.5 180.5,-164.5 371.5,-164.5 371.5,-134.5 180.5,-134.5"/>
<text text-anchor="start" x="188.5" y="-152.5" font-family="Helvetica,sans-Serif" font-size="10.00">/home/ladeira/Documents</text>
<text text-anchor="middle" x="276" y="-141.5" font-family="Helvetica,sans-Serif" font-size="10.00">/src/onion/onion/RandomEngine.hpp</text>
</a>
</g>
</g>
<!-- Node2 -->
<g id="node2" class="node">
<title>Node2</title>
<g id="a_node2"><a xlink:href="_random_8hpp.html" target="_top" xlink:title="This header introduces the random number generation (RNG) facilities of the Onion Framework.">
<polygon fill="white" stroke="black" points="0,-67.5 0,-97.5 158,-97.5 158,-67.5 0,-67.5"/>
<text text-anchor="start" x="8" y="-85.5" font-family="Helvetica,sans-Serif" font-size="10.00">/home/ladeira/Documents</text>
<text text-anchor="middle" x="79" y="-74.5" font-family="Helvetica,sans-Serif" font-size="10.00">/src/onion/onion/Random.hpp</text>
</a>
</g>
</g>
<!-- Node1&#45;&gt;Node2 -->
<g id="edge1" class="edge">
<title>Node1&#45;&gt;Node2</title>
<path fill="none" stroke="midnightblue" d="M223.65,-131.23C191.78,-120.71 151.59,-107.45 121.66,-97.58"/>
<polygon fill="midnightblue" stroke="midnightblue" points="222.66,-134.59 233.25,-134.4 224.85,-127.94 222.66,-134.59"/>
</g>
<!-- Node4 -->
<g id="node4" class="node">
<title>Node4</title>
<g id="a_node4"><a xlink:href="_random_legacy_c_8hpp.html" target="_top" xlink:title="Implementation of the RandomEngine interface using the legacy C facilities from the C stdlib.">
<polygon fill="white" stroke="black" points="176,-67.5 176,-97.5 376,-97.5 376,-67.5 176,-67.5"/>
<text text-anchor="start" x="184" y="-85.5" font-family="Helvetica,sans-Serif" font-size="10.00">/home/ladeira/Documents</text>
<text text-anchor="middle" x="276" y="-74.5" font-family="Helvetica,sans-Serif" font-size="10.00">/src/onion/onion/RandomLegacyC.hpp</text>
</a>
</g>
</g>
<!-- Node1&#45;&gt;Node4 -->
<g id="edge3" class="edge">
<title>Node1&#45;&gt;Node4</title>
<path fill="none" stroke="midnightblue" d="M276,-124.11C276,-115.15 276,-105.32 276,-97.58"/>
<polygon fill="midnightblue" stroke="midnightblue" points="272.5,-124.4 276,-134.4 279.5,-124.4 272.5,-124.4"/>
</g>
<!-- Node5 -->
<g id="node5" class="node">
<title>Node5</title>
<g id="a_node5"><a xlink:href="_random_s_t_l_8hpp.html" target="_top" xlink:title="Implementation of the RandomEngine interface using C++11 (and above) RNG facilities.">
<polygon fill="white" stroke="black" points="394,-67.5 394,-97.5 570,-97.5 570,-67.5 394,-67.5"/>
<text text-anchor="start" x="402" y="-85.5" font-family="Helvetica,sans-Serif" font-size="10.00">/home/ladeira/Documents</text>
<text text-anchor="middle" x="482" y="-74.5" font-family="Helvetica,sans-Serif" font-size="10.00">/src/onion/onion/RandomSTL.hpp</text>
</a>
</g>
</g>
<!-- Node1&#45;&gt;Node5 -->
<g id="edge4" class="edge">
<title>Node1&#45;&gt;Node5</title>
<path fill="none" stroke="midnightblue" d="M330.05,-131.44C363.45,-120.91 405.78,-107.55 437.28,-97.61"/>
<polygon fill="midnightblue" stroke="midnightblue" points="328.93,-128.13 320.45,-134.48 331.04,-134.8 328.93,-128.13"/>
</g>
<!-- Node3 -->
<g id="node3" class="node">
<title>Node3</title>
<g id="a_node3"><a xlink:href="_random_8cpp.html" target="_top" xlink:title="Implementation of the global RandomEngine object.">
<polygon fill="white" stroke="black" points="201,-0.5 201,-30.5 359,-30.5 359,-0.5 201,-0.5"/>
<text text-anchor="start" x="209" y="-18.5" font-family="Helvetica,sans-Serif" font-size="10.00">/home/ladeira/Documents</text>
<text text-anchor="middle" x="280" y="-7.5" font-family="Helvetica,sans-Serif" font-size="10.00">/src/onion/onion/Random.cpp</text>
</a>
</g>
</g>
<!-- Node2&#45;&gt;Node3 -->
<g id="edge2" class="edge">
<title>Node2&#45;&gt;Node3</title>
<path fill="none" stroke="midnightblue" d="M132.41,-64.23C164.93,-53.71 205.94,-40.45 236.47,-30.58"/>
<polygon fill="midnightblue" stroke="midnightblue" points="131.05,-60.99 122.61,-67.4 133.21,-67.65 131.05,-60.99"/>
</g>
<!-- Node5&#45;&gt;Node3 -->
<g id="edge5" class="edge">
<title>Node5&#45;&gt;Node3</title>
<path fill="none" stroke="midnightblue" d="M428.32,-64.23C395.65,-53.71 354.43,-40.45 323.75,-30.58"/>
<polygon fill="midnightblue" stroke="midnightblue" points="427.58,-67.66 438.17,-67.4 429.72,-61 427.58,-67.66"/>
</g>
</g>
</svg>
