<?xml version="1.0" encoding="UTF-8" standalone="no"?>
<!DOCTYPE svg PUBLIC "-//W3C//DTD SVG 1.1//EN"
 "http://www.w3.org/Graphics/SVG/1.1/DTD/svg11.dtd">
<!-- Generated by graphviz version 2.43.0 (0)
 -->
<!-- Title: onion::cops::tsp::array::CreateRandom&lt; num_cities &gt; Pages: 1 -->
<svg width="248pt" height="162pt"
 viewBox="0.00 0.00 247.50 162.00" xmlns="http://www.w3.org/2000/svg" xmlns:xlink="http://www.w3.org/1999/xlink">
<g id="graph0" class="graph" transform="scale(1 1) rotate(0) translate(4 158)">
<title>onion::cops::tsp::array::CreateRandom&lt; num_cities &gt;</title>
<polygon fill="white" stroke="transparent" points="-4,4 -4,-158 243.5,-158 243.5,4 -4,4"/>
<!-- Node1 -->
<g id="node1" class="node">
<title>Node1</title>
<g id="a_node1"><a xlink:title=" ">
<polygon fill="#bfbfbf" stroke="black" points="36,-0.5 36,-30.5 207,-30.5 207,-0.5 36,-0.5"/>
<text text-anchor="start" x="44" y="-18.5" font-family="Helvetica,sans-Serif" font-size="10.00">onion::cops::tsp::array</text>
<text text-anchor="middle" x="121.5" y="-7.5" font-family="Helvetica,sans-Serif" font-size="10.00">::CreateRandom&lt; num_cities &gt;</text>
</a>
</g>
</g>
<!-- Node2 -->
<g id="node2" class="node">
<title>Node2</title>
<g id="a_node2"><a xlink:href="classonion_1_1_create_operator.html" target="_top" xlink:title=" ">
<polygon fill="white" stroke="black" points="48.5,-67.5 48.5,-97.5 194.5,-97.5 194.5,-67.5 48.5,-67.5"/>
<text text-anchor="start" x="56.5" y="-85.5" font-family="Helvetica,sans-Serif" font-size="10.00">onion::CreateOperator</text>
<text text-anchor="middle" x="121.5" y="-74.5" font-family="Helvetica,sans-Serif" font-size="10.00">&lt; path_t&lt; num_cities &gt; &gt;</text>
</a>
</g>
</g>
<!-- Node2&#45;&gt;Node1 -->
<g id="edge1" class="edge">
<title>Node2&#45;&gt;Node1</title>
<path fill="none" stroke="midnightblue" d="M121.5,-57.11C121.5,-48.15 121.5,-38.32 121.5,-30.58"/>
<polygon fill="midnightblue" stroke="midnightblue" points="118,-57.4 121.5,-67.4 125,-57.4 118,-57.4"/>
</g>
<!-- Node3 -->
<g id="node3" class="node">
<title>Node3</title>
<g id="a_node3"><a xlink:href="classonion_1_1_non_copyable.html" target="_top" xlink:title=" ">
<polygon fill="white" stroke="black" points="0,-134.5 0,-153.5 115,-153.5 115,-134.5 0,-134.5"/>
<text text-anchor="middle" x="57.5" y="-141.5" font-family="Helvetica,sans-Serif" font-size="10.00">onion::NonCopyable</text>
</a>
</g>
</g>
<!-- Node3&#45;&gt;Node2 -->
<g id="edge2" class="edge">
<title>Node3&#45;&gt;Node2</title>
<path fill="none" stroke="midnightblue" d="M74.02,-127.65C84.02,-118.35 96.68,-106.57 106.42,-97.52"/>
<polygon fill="midnightblue" stroke="midnightblue" points="71.61,-125.1 66.67,-134.48 76.38,-130.23 71.61,-125.1"/>
</g>
<!-- Node4 -->
<g id="node4" class="node">
<title>Node4</title>
<g id="a_node4"><a xlink:href="classonion_1_1_component.html" target="_top" xlink:title=" ">
<polygon fill="white" stroke="black" points="133.5,-134.5 133.5,-153.5 239.5,-153.5 239.5,-134.5 133.5,-134.5"/>
<text text-anchor="middle" x="186.5" y="-141.5" font-family="Helvetica,sans-Serif" font-size="10.00">onion::Component</text>
</a>
</g>
</g>
<!-- Node4&#45;&gt;Node2 -->
<g id="edge3" class="edge">
<title>Node4&#45;&gt;Node2</title>
<path fill="none" stroke="midnightblue" d="M169.73,-127.65C159.57,-118.35 146.7,-106.57 136.82,-97.52"/>
<polygon fill="midnightblue" stroke="midnightblue" points="167.45,-130.3 177.19,-134.48 172.17,-125.14 167.45,-130.3"/>
</g>
</g>
</svg>
