<?xml version="1.0" encoding="UTF-8" standalone="no"?>
<!DOCTYPE svg PUBLIC "-//W3C//DTD SVG 1.1//EN"
 "http://www.w3.org/Graphics/SVG/1.1/DTD/svg11.dtd">
<!-- Generated by graphviz version 2.43.0 (0)
 -->
<!-- Title: onion::RandomEngine Pages: 1 -->
<svg width="314pt" height="95pt"
 viewBox="0.00 0.00 313.50 95.00" xmlns="http://www.w3.org/2000/svg" xmlns:xlink="http://www.w3.org/1999/xlink">
<g id="graph0" class="graph" transform="scale(1 1) rotate(0) translate(4 91)">
<title>onion::RandomEngine</title>
<polygon fill="white" stroke="transparent" points="-4,4 -4,-91 309.5,-91 309.5,4 -4,4"/>
<!-- Node1 -->
<g id="node1" class="node">
<title>Node1</title>
<g id="a_node1"><a xlink:title="Inteface class for random number generation.">
<polygon fill="#bfbfbf" stroke="black" points="85,-67.5 85,-86.5 208,-86.5 208,-67.5 85,-67.5"/>
<text text-anchor="middle" x="146.5" y="-74.5" font-family="Helvetica,sans-Serif" font-size="10.00">onion::RandomEngine</text>
</a>
</g>
</g>
<!-- Node2 -->
<g id="node2" class="node">
<title>Node2</title>
<g id="a_node2"><a xlink:href="classonion_1_1_random_legacy_c.html" target="_top" xlink:title="Implements the RandomEngine interface using legacy C functions from C stdlib.">
<polygon fill="white" stroke="black" points="0,-6 0,-25 131,-25 131,-6 0,-6"/>
<text text-anchor="middle" x="65.5" y="-13" font-family="Helvetica,sans-Serif" font-size="10.00">onion::RandomLegacyC</text>
</a>
</g>
</g>
<!-- Node1&#45;&gt;Node2 -->
<g id="edge1" class="edge">
<title>Node1&#45;&gt;Node2</title>
<path fill="none" stroke="midnightblue" d="M126.48,-61.29C110.94,-49.88 89.95,-34.46 77.08,-25.01"/>
<polygon fill="midnightblue" stroke="midnightblue" points="124.76,-64.38 134.89,-67.48 128.91,-58.73 124.76,-64.38"/>
</g>
<!-- Node3 -->
<g id="node3" class="node">
<title>Node3</title>
<g id="a_node3"><a xlink:href="classonion_1_1_random_s_t_l.html" target="_top" xlink:title="Implements the RandomEngine interface using the C++ STL facilities.">
<polygon fill="white" stroke="black" points="149.5,-0.5 149.5,-30.5 305.5,-30.5 305.5,-0.5 149.5,-0.5"/>
<text text-anchor="start" x="157.5" y="-18.5" font-family="Helvetica,sans-Serif" font-size="10.00">onion::RandomSTL&lt; random</text>
<text text-anchor="middle" x="227.5" y="-7.5" font-family="Helvetica,sans-Serif" font-size="10.00">_engine_t &gt;</text>
</a>
</g>
</g>
<!-- Node1&#45;&gt;Node3 -->
<g id="edge2" class="edge">
<title>Node1&#45;&gt;Node3</title>
<path fill="none" stroke="midnightblue" d="M166.28,-61.47C179.11,-52.05 195.73,-39.84 208.41,-30.52"/>
<polygon fill="midnightblue" stroke="midnightblue" points="164.09,-58.73 158.11,-67.48 168.24,-64.38 164.09,-58.73"/>
</g>
</g>
</svg>
