<?xml version="1.0" encoding="UTF-8" standalone="no"?>
<!DOCTYPE svg PUBLIC "-//W3C//DTD SVG 1.1//EN"
 "http://www.w3.org/Graphics/SVG/1.1/DTD/svg11.dtd">
<!-- Generated by graphviz version 2.43.0 (0)
 -->
<!-- Title: /home/ladeira/Documents/src/onion/onion/component.hpp Pages: 1 -->
<svg width="181pt" height="184pt"
 viewBox="0.00 0.00 181.00 184.00" xmlns="http://www.w3.org/2000/svg" xmlns:xlink="http://www.w3.org/1999/xlink">
<g id="graph0" class="graph" transform="scale(1 1) rotate(0) translate(4 180)">
<title>/home/ladeira/Documents/src/onion/onion/component.hpp</title>
<polygon fill="white" stroke="transparent" points="-4,4 -4,-180 177,-180 177,4 -4,4"/>
<!-- Node1 -->
<g id="node1" class="node">
<title>Node1</title>
<g id="a_node1"><a xlink:title=" ">
<polygon fill="#bfbfbf" stroke="black" points="0,-145.5 0,-175.5 173,-175.5 173,-145.5 0,-145.5"/>
<text text-anchor="start" x="8" y="-163.5" font-family="Helvetica,sans-Serif" font-size="10.00">/home/ladeira/Documents</text>
<text text-anchor="middle" x="86.5" y="-152.5" font-family="Helvetica,sans-Serif" font-size="10.00">/src/onion/onion/component.hpp</text>
</a>
</g>
</g>
<!-- Node2 -->
<g id="node2" class="node">
<title>Node2</title>
<g id="a_node2"><a xlink:href="create_8hpp.html" target="_top" xlink:title=" ">
<polygon fill="white" stroke="black" points="12,-78.5 12,-108.5 161,-108.5 161,-78.5 12,-78.5"/>
<text text-anchor="start" x="20" y="-96.5" font-family="Helvetica,sans-Serif" font-size="10.00">/home/ladeira/Documents</text>
<text text-anchor="middle" x="86.5" y="-85.5" font-family="Helvetica,sans-Serif" font-size="10.00">/src/onion/onion/create.hpp</text>
</a>
</g>
</g>
<!-- Node1&#45;&gt;Node2 -->
<g id="edge1" class="edge">
<title>Node1&#45;&gt;Node2</title>
<path fill="none" stroke="midnightblue" d="M86.5,-135.11C86.5,-126.15 86.5,-116.32 86.5,-108.58"/>
<polygon fill="midnightblue" stroke="midnightblue" points="83,-135.4 86.5,-145.4 90,-135.4 83,-135.4"/>
</g>
<!-- Node3 -->
<g id="node3" class="node">
<title>Node3</title>
<g id="a_node3"><a xlink:href="create__random_8hpp.html" target="_top" xlink:title=" ">
<polygon fill="white" stroke="black" points="15,-0.5 15,-41.5 158,-41.5 158,-0.5 15,-0.5"/>
<text text-anchor="start" x="23" y="-29.5" font-family="Helvetica,sans-Serif" font-size="10.00">/home/ladeira/Documents</text>
<text text-anchor="start" x="23" y="-18.5" font-family="Helvetica,sans-Serif" font-size="10.00">/src/onion/cops/tsp/array</text>
<text text-anchor="middle" x="86.5" y="-7.5" font-family="Helvetica,sans-Serif" font-size="10.00">/create_random.hpp</text>
</a>
</g>
</g>
<!-- Node2&#45;&gt;Node3 -->
<g id="edge2" class="edge">
<title>Node2&#45;&gt;Node3</title>
<path fill="none" stroke="midnightblue" d="M86.5,-67.98C86.5,-59.35 86.5,-49.76 86.5,-41.59"/>
<polygon fill="midnightblue" stroke="midnightblue" points="83,-68.23 86.5,-78.23 90,-68.23 83,-68.23"/>
</g>
</g>
</svg>
