<?xml version="1.0" encoding="UTF-8" standalone="no"?>
<!DOCTYPE svg PUBLIC "-//W3C//DTD SVG 1.1//EN"
 "http://www.w3.org/Graphics/SVG/1.1/DTD/svg11.dtd">
<!-- Generated by graphviz version 2.43.0 (0)
 -->
<!-- Title: /home/ladeira/Documents/src/onion/cops/tsp/array/create_random.hpp Pages: 1 -->
<svg width="305pt" height="218pt"
 viewBox="0.00 0.00 304.50 218.00" xmlns="http://www.w3.org/2000/svg" xmlns:xlink="http://www.w3.org/1999/xlink">
<g id="graph0" class="graph" transform="scale(1 1) rotate(0) translate(4 214)">
<title>/home/ladeira/Documents/src/onion/cops/tsp/array/create_random.hpp</title>
<polygon fill="white" stroke="transparent" points="-4,4 -4,-214 300.5,-214 300.5,4 -4,4"/>
<!-- Node1 -->
<g id="node1" class="node">
<title>Node1</title>
<g id="a_node1"><a xlink:title=" ">
<polygon fill="#bfbfbf" stroke="black" points="15.5,-168.5 15.5,-209.5 158.5,-209.5 158.5,-168.5 15.5,-168.5"/>
<text text-anchor="start" x="23.5" y="-197.5" font-family="Helvetica,sans-Serif" font-size="10.00">/home/ladeira/Documents</text>
<text text-anchor="start" x="23.5" y="-186.5" font-family="Helvetica,sans-Serif" font-size="10.00">/src/onion/cops/tsp/array</text>
<text text-anchor="middle" x="87" y="-175.5" font-family="Helvetica,sans-Serif" font-size="10.00">/create_random.hpp</text>
</a>
</g>
</g>
<!-- Node2 -->
<g id="node2" class="node">
<title>Node2</title>
<g id="a_node2"><a xlink:href="array_8hpp.html" target="_top" xlink:title=" ">
<polygon fill="white" stroke="black" points="0,-112.5 0,-131.5 62,-131.5 62,-112.5 0,-112.5"/>
<text text-anchor="middle" x="31" y="-119.5" font-family="Helvetica,sans-Serif" font-size="10.00">array.hpp</text>
</a>
</g>
</g>
<!-- Node1&#45;&gt;Node2 -->
<g id="edge1" class="edge">
<title>Node1&#45;&gt;Node2</title>
<path fill="none" stroke="midnightblue" d="M70.2,-168.5C62.19,-159.2 52.72,-148.21 45.09,-139.36"/>
<polygon fill="midnightblue" stroke="midnightblue" points="47.63,-136.94 38.45,-131.65 42.33,-141.51 47.63,-136.94"/>
</g>
<!-- Node4 -->
<g id="node4" class="node">
<title>Node4</title>
<g id="a_node4"><a xlink:href="create_8hpp.html" target="_top" xlink:title=" ">
<polygon fill="white" stroke="black" points="80.5,-112.5 80.5,-131.5 205.5,-131.5 205.5,-112.5 80.5,-112.5"/>
<text text-anchor="middle" x="143" y="-119.5" font-family="Helvetica,sans-Serif" font-size="10.00">../../../onion/create.hpp</text>
</a>
</g>
</g>
<!-- Node1&#45;&gt;Node4 -->
<g id="edge3" class="edge">
<title>Node1&#45;&gt;Node4</title>
<path fill="none" stroke="midnightblue" d="M103.8,-168.5C111.81,-159.2 121.28,-148.21 128.91,-139.36"/>
<polygon fill="midnightblue" stroke="midnightblue" points="131.67,-141.51 135.55,-131.65 126.37,-136.94 131.67,-141.51"/>
</g>
<!-- Node3 -->
<g id="node3" class="node">
<title>Node3</title>
<g id="a_node3"><a xlink:title=" ">
<polygon fill="white" stroke="#bfbfbf" points="10,-56.5 10,-75.5 52,-75.5 52,-56.5 10,-56.5"/>
<text text-anchor="middle" x="31" y="-63.5" font-family="Helvetica,sans-Serif" font-size="10.00">array</text>
</a>
</g>
</g>
<!-- Node2&#45;&gt;Node3 -->
<g id="edge2" class="edge">
<title>Node2&#45;&gt;Node3</title>
<path fill="none" stroke="midnightblue" d="M31,-112.08C31,-105.01 31,-94.86 31,-85.99"/>
<polygon fill="midnightblue" stroke="midnightblue" points="34.5,-85.75 31,-75.75 27.5,-85.75 34.5,-85.75"/>
</g>
<!-- Node5 -->
<g id="node5" class="node">
<title>Node5</title>
<g id="a_node5"><a xlink:href="component_8hpp.html" target="_top" xlink:title=" ">
<polygon fill="white" stroke="black" points="83,-56.5 83,-75.5 175,-75.5 175,-56.5 83,-56.5"/>
<text text-anchor="middle" x="129" y="-63.5" font-family="Helvetica,sans-Serif" font-size="10.00">component.hpp</text>
</a>
</g>
</g>
<!-- Node4&#45;&gt;Node5 -->
<g id="edge4" class="edge">
<title>Node4&#45;&gt;Node5</title>
<path fill="none" stroke="midnightblue" d="M140.69,-112.08C138.83,-104.93 136.16,-94.64 133.85,-85.69"/>
<polygon fill="midnightblue" stroke="midnightblue" points="137.17,-84.55 131.27,-75.75 130.39,-86.31 137.17,-84.55"/>
</g>
<!-- Node9 -->
<g id="node9" class="node">
<title>Node9</title>
<g id="a_node9"><a xlink:href="_non_copyable_8hpp.html" target="_top" xlink:title=" ">
<polygon fill="white" stroke="black" points="193.5,-56.5 193.5,-75.5 296.5,-75.5 296.5,-56.5 193.5,-56.5"/>
<text text-anchor="middle" x="245" y="-63.5" font-family="Helvetica,sans-Serif" font-size="10.00">NonCopyable.hpp</text>
</a>
</g>
</g>
<!-- Node4&#45;&gt;Node9 -->
<g id="edge8" class="edge">
<title>Node4&#45;&gt;Node9</title>
<path fill="none" stroke="midnightblue" d="M159.39,-112.32C175.67,-103.7 200.87,-90.36 219.72,-80.39"/>
<polygon fill="midnightblue" stroke="midnightblue" points="221.45,-83.43 228.65,-75.65 218.18,-77.24 221.45,-83.43"/>
</g>
<!-- Node6 -->
<g id="node6" class="node">
<title>Node6</title>
<g id="a_node6"><a xlink:title=" ">
<polygon fill="white" stroke="#bfbfbf" points="39,-0.5 39,-19.5 83,-19.5 83,-0.5 39,-0.5"/>
<text text-anchor="middle" x="61" y="-7.5" font-family="Helvetica,sans-Serif" font-size="10.00">string</text>
</a>
</g>
</g>
<!-- Node5&#45;&gt;Node6 -->
<g id="edge5" class="edge">
<title>Node5&#45;&gt;Node6</title>
<path fill="none" stroke="midnightblue" d="M118.07,-56.32C107.83,-48.18 92.28,-35.84 80,-26.09"/>
<polygon fill="midnightblue" stroke="midnightblue" points="82.13,-23.31 72.12,-19.83 77.78,-28.79 82.13,-23.31"/>
</g>
<!-- Node7 -->
<g id="node7" class="node">
<title>Node7</title>
<g id="a_node7"><a xlink:title=" ">
<polygon fill="white" stroke="#bfbfbf" points="101,-0.5 101,-19.5 157,-19.5 157,-0.5 101,-0.5"/>
<text text-anchor="middle" x="129" y="-7.5" font-family="Helvetica,sans-Serif" font-size="10.00">sstream</text>
</a>
</g>
</g>
<!-- Node5&#45;&gt;Node7 -->
<g id="edge6" class="edge">
<title>Node5&#45;&gt;Node7</title>
<path fill="none" stroke="midnightblue" d="M129,-56.08C129,-49.01 129,-38.86 129,-29.99"/>
<polygon fill="midnightblue" stroke="midnightblue" points="132.5,-29.75 129,-19.75 125.5,-29.75 132.5,-29.75"/>
</g>
<!-- Node8 -->
<g id="node8" class="node">
<title>Node8</title>
<g id="a_node8"><a xlink:title=" ">
<polygon fill="white" stroke="#bfbfbf" points="175.5,-0.5 175.5,-19.5 232.5,-19.5 232.5,-0.5 175.5,-0.5"/>
<text text-anchor="middle" x="204" y="-7.5" font-family="Helvetica,sans-Serif" font-size="10.00">ostream</text>
</a>
</g>
</g>
<!-- Node5&#45;&gt;Node8 -->
<g id="edge7" class="edge">
<title>Node5&#45;&gt;Node8</title>
<path fill="none" stroke="midnightblue" d="M141.05,-56.32C152.46,-48.11 169.83,-35.6 183.43,-25.81"/>
<polygon fill="midnightblue" stroke="midnightblue" points="185.66,-28.52 191.73,-19.83 181.57,-22.84 185.66,-28.52"/>
</g>
</g>
</svg>
