<?xml version="1.0" encoding="UTF-8" standalone="no"?>
<!DOCTYPE svg PUBLIC "-//W3C//DTD SVG 1.1//EN"
 "http://www.w3.org/Graphics/SVG/1.1/DTD/svg11.dtd">
<!-- Generated by graphviz version 2.43.0 (0)
 -->
<!-- Title: /home/ladeira/Documents/src/onion/cops Pages: 1 -->
<svg width="334pt" height="175pt"
 viewBox="0.00 0.00 334.00 175.00" xmlns="http://www.w3.org/2000/svg" xmlns:xlink="http://www.w3.org/1999/xlink">
<g id="graph0" class="graph" transform="scale(1 1) rotate(0) translate(4 171)">
<title>/home/ladeira/Documents/src/onion/cops</title>
<polygon fill="white" stroke="transparent" points="-4,4 -4,-171 330,-171 330,4 -4,4"/>
<g id="clust1" class="cluster">
<title>clusterdir_768391f28944dce58af16eb0f1f9e6f7</title>
<g id="a_clust1"><a xlink:href="dir_768391f28944dce58af16eb0f1f9e6f7.html" target="_top" xlink:title="onion">
<polygon fill="#ddddee" stroke="black" points="8,-8 8,-159 318,-159 318,-8 8,-8"/>
<text text-anchor="middle" x="163" y="-147" font-family="Helvetica,sans-Serif" font-size="10.00">onion</text>
</a>
</g>
</g>
<g id="clust2" class="cluster">
<title>clusterdir_85956902490f597b4eb5733f3dffc513</title>
<g id="a_clust2"><a xlink:href="dir_85956902490f597b4eb5733f3dffc513.html" target="_top">
<polygon fill="#eeeeff" stroke="black" points="16,-80 16,-132 310,-132 310,-80 16,-80"/>
</a>
</g>
</g>
<!-- dir_aa03dd98a0e33e4b253be7365e0e36b3 -->
<g id="node1" class="node">
<title>dir_aa03dd98a0e33e4b253be7365e0e36b3</title>
<g id="a_node1"><a xlink:href="dir_aa03dd98a0e33e4b253be7365e0e36b3.html" target="_top" xlink:title="onion">
<polygon fill="none" stroke="black" points="78,-52 24,-52 24,-16 78,-16 78,-52"/>
<text text-anchor="middle" x="51" y="-31.5" font-family="Helvetica,sans-Serif" font-size="10.00">onion</text>
</a>
</g>
</g>
<!-- dir_85956902490f597b4eb5733f3dffc513 -->
<g id="node2" class="node">
<title>dir_85956902490f597b4eb5733f3dffc513</title>
<text text-anchor="middle" x="275" y="-103.5" font-family="Helvetica,sans-Serif" font-size="10.00">cops</text>
</g>
<!-- dir_22444ee0a641fe91495d005a70d82dc2 -->
<g id="node3" class="node">
<title>dir_22444ee0a641fe91495d005a70d82dc2</title>
<g id="a_node3"><a xlink:href="dir_22444ee0a641fe91495d005a70d82dc2.html" target="_top" xlink:title="functions">
<polygon fill="white" stroke="black" points="230,-124 168,-124 168,-88 230,-88 230,-124"/>
<text text-anchor="middle" x="199" y="-103.5" font-family="Helvetica,sans-Serif" font-size="10.00">functions</text>
</a>
</g>
</g>
<!-- dir_b54ce21c6b45bcfcabe321b4e18018d4 -->
<g id="node4" class="node">
<title>dir_b54ce21c6b45bcfcabe321b4e18018d4</title>
<g id="a_node4"><a xlink:href="dir_b54ce21c6b45bcfcabe321b4e18018d4.html" target="_top" xlink:title="mkp">
<polygon fill="white" stroke="black" points="150,-124 96,-124 96,-88 150,-88 150,-124"/>
<text text-anchor="middle" x="123" y="-103.5" font-family="Helvetica,sans-Serif" font-size="10.00">mkp</text>
</a>
</g>
</g>
<!-- dir_a8c0d3ebe33e88dfca548d397b83233f -->
<g id="node5" class="node">
<title>dir_a8c0d3ebe33e88dfca548d397b83233f</title>
<g id="a_node5"><a xlink:href="dir_a8c0d3ebe33e88dfca548d397b83233f.html" target="_top" xlink:title="tsp">
<polygon fill="white" stroke="red" points="78,-124 24,-124 24,-88 78,-88 78,-124"/>
<text text-anchor="middle" x="51" y="-103.5" font-family="Helvetica,sans-Serif" font-size="10.00">tsp</text>
</a>
</g>
</g>
<!-- dir_a8c0d3ebe33e88dfca548d397b83233f&#45;&gt;dir_aa03dd98a0e33e4b253be7365e0e36b3 -->
<g id="edge1" class="edge">
<title>dir_a8c0d3ebe33e88dfca548d397b83233f&#45;&gt;dir_aa03dd98a0e33e4b253be7365e0e36b3</title>
<path fill="none" stroke="black" d="M51,-87.7C51,-79.98 51,-70.71 51,-62.11"/>
<polygon fill="black" stroke="black" points="54.5,-62.1 51,-52.1 47.5,-62.1 54.5,-62.1"/>
<g id="a_edge1&#45;headlabel"><a xlink:href="dir_000004_000007.html" target="_top" xlink:title="1">
<text text-anchor="middle" x="57.34" y="-63.2" font-family="Helvetica,sans-Serif" font-size="10.00">1</text>
</a>
</g>
</g>
</g>
</svg>
