<?xml version="1.0" encoding="UTF-8" standalone="no"?>
<!DOCTYPE svg PUBLIC "-//W3C//DTD SVG 1.1//EN"
 "http://www.w3.org/Graphics/SVG/1.1/DTD/svg11.dtd">
<!-- Generated by graphviz version 2.43.0 (0)
 -->
<!-- Title: /home/ladeira/Documents/src/onion/cops/tsp Pages: 1 -->
<svg width="262pt" height="159pt"
 viewBox="0.00 0.00 262.00 159.00" xmlns="http://www.w3.org/2000/svg" xmlns:xlink="http://www.w3.org/1999/xlink">
<g id="graph0" class="graph" transform="scale(1 1) rotate(0) translate(4 155)">
<title>/home/ladeira/Documents/src/onion/cops/tsp</title>
<polygon fill="white" stroke="transparent" points="-4,4 -4,-155 258,-155 258,4 -4,4"/>
<g id="clust1" class="cluster">
<title>clusterdir_85956902490f597b4eb5733f3dffc513</title>
<g id="a_clust1"><a xlink:href="dir_85956902490f597b4eb5733f3dffc513.html" target="_top" xlink:title="cops">
<polygon fill="#ddddee" stroke="black" points="8,-56 8,-143 246,-143 246,-56 8,-56"/>
<text text-anchor="middle" x="127" y="-131" font-family="Helvetica,sans-Serif" font-size="10.00">cops</text>
</a>
</g>
</g>
<g id="clust2" class="cluster">
<title>clusterdir_a8c0d3ebe33e88dfca548d397b83233f</title>
<g id="a_clust2"><a xlink:href="dir_a8c0d3ebe33e88dfca548d397b83233f.html" target="_top">
<polygon fill="#eeeeff" stroke="black" points="16,-64 16,-116 238,-116 238,-64 16,-64"/>
</a>
</g>
</g>
<!-- dir_a8c0d3ebe33e88dfca548d397b83233f -->
<g id="node1" class="node">
<title>dir_a8c0d3ebe33e88dfca548d397b83233f</title>
<text text-anchor="middle" x="203" y="-87.5" font-family="Helvetica,sans-Serif" font-size="10.00">tsp</text>
</g>
<!-- dir_6568c4d3d90cbbda48cbfcc289a50b58 -->
<g id="node2" class="node">
<title>dir_6568c4d3d90cbbda48cbfcc289a50b58</title>
<g id="a_node2"><a xlink:href="dir_6568c4d3d90cbbda48cbfcc289a50b58.html" target="_top" xlink:title="array">
<polygon fill="white" stroke="black" points="158,-108 104,-108 104,-72 158,-72 158,-108"/>
<text text-anchor="middle" x="131" y="-87.5" font-family="Helvetica,sans-Serif" font-size="10.00">array</text>
</a>
</g>
</g>
<!-- dir_aa03dd98a0e33e4b253be7365e0e36b3 -->
<g id="node4" class="node">
<title>dir_aa03dd98a0e33e4b253be7365e0e36b3</title>
<g id="a_node4"><a xlink:href="dir_aa03dd98a0e33e4b253be7365e0e36b3.html" target="_top" xlink:title="onion">
<polygon fill="none" stroke="black" points="158,-36 104,-36 104,0 158,0 158,-36"/>
<text text-anchor="middle" x="131" y="-15.5" font-family="Helvetica,sans-Serif" font-size="10.00">onion</text>
</a>
</g>
</g>
<!-- dir_6568c4d3d90cbbda48cbfcc289a50b58&#45;&gt;dir_aa03dd98a0e33e4b253be7365e0e36b3 -->
<g id="edge1" class="edge">
<title>dir_6568c4d3d90cbbda48cbfcc289a50b58&#45;&gt;dir_aa03dd98a0e33e4b253be7365e0e36b3</title>
<path fill="none" stroke="black" d="M131,-71.7C131,-63.98 131,-54.71 131,-46.11"/>
<polygon fill="black" stroke="black" points="134.5,-46.1 131,-36.1 127.5,-46.1 134.5,-46.1"/>
<g id="a_edge1&#45;headlabel"><a xlink:href="dir_000005_000007.html" target="_top" xlink:title="1">
<text text-anchor="middle" x="137.34" y="-47.2" font-family="Helvetica,sans-Serif" font-size="10.00">1</text>
</a>
</g>
</g>
<!-- dir_427d5a5b9b8e1ffacef34b1426c08dff -->
<g id="node3" class="node">
<title>dir_427d5a5b9b8e1ffacef34b1426c08dff</title>
<g id="a_node3"><a xlink:href="dir_427d5a5b9b8e1ffacef34b1426c08dff.html" target="_top" xlink:title="bitmatrix">
<polygon fill="white" stroke="black" points="86,-108 24,-108 24,-72 86,-72 86,-108"/>
<text text-anchor="middle" x="55" y="-87.5" font-family="Helvetica,sans-Serif" font-size="10.00">bitmatrix</text>
</a>
</g>
</g>
</g>
</svg>
