<?xml version="1.0" encoding="UTF-8" standalone="no"?>
<!DOCTYPE svg PUBLIC "-//W3C//DTD SVG 1.1//EN"
 "http://www.w3.org/Graphics/SVG/1.1/DTD/svg11.dtd">
<!-- Generated by graphviz version 2.43.0 (0)
 -->
<!-- Title: Graphical Class Hierarchy Pages: 1 -->
<svg width="517pt" height="127pt"
 viewBox="0.00 0.00 517.00 126.50" xmlns="http://www.w3.org/2000/svg" xmlns:xlink="http://www.w3.org/1999/xlink">
<g id="graph0" class="graph" transform="scale(1 1) rotate(0) translate(4 122.5)">
<title>Graphical Class Hierarchy</title>
<polygon fill="white" stroke="transparent" points="-4,4 -4,-122.5 513,-122.5 513,4 -4,4"/>
<!-- Node0 -->
<g id="node1" class="node">
<title>Node0</title>
<g id="a_node1"><a xlink:href="classonion_1_1_component.html" target="_top" xlink:title=" ">
<polygon fill="white" stroke="black" points="4.5,-87.5 4.5,-106.5 110.5,-106.5 110.5,-87.5 4.5,-87.5"/>
<text text-anchor="middle" x="57.5" y="-94.5" font-family="Helvetica,sans-Serif" font-size="10.00">onion::Component</text>
</a>
</g>
</g>
<!-- Node1 -->
<g id="node2" class="node">
<title>Node1</title>
<g id="a_node2"><a xlink:href="classonion_1_1_create_operator.html" target="_top" xlink:title=" ">
<polygon fill="white" stroke="black" points="153.5,-39 153.5,-69 299.5,-69 299.5,-39 153.5,-39"/>
<text text-anchor="start" x="161.5" y="-57" font-family="Helvetica,sans-Serif" font-size="10.00">onion::CreateOperator</text>
<text text-anchor="middle" x="226.5" y="-46" font-family="Helvetica,sans-Serif" font-size="10.00">&lt; path_t&lt; num_cities &gt; &gt;</text>
</a>
</g>
</g>
<!-- Node0&#45;&gt;Node1 -->
<g id="edge1" class="edge">
<title>Node0&#45;&gt;Node1</title>
<path fill="none" stroke="midnightblue" d="M105.29,-84.95C124.5,-80.01 146.95,-74.22 167.22,-69.01"/>
<polygon fill="midnightblue" stroke="midnightblue" points="104.37,-81.57 95.56,-87.46 106.12,-88.35 104.37,-81.57"/>
</g>
<!-- Node3 -->
<g id="node4" class="node">
<title>Node3</title>
<g id="a_node4"><a xlink:href="classonion_1_1_create_operator.html" target="_top" xlink:title=" ">
<polygon fill="white" stroke="black" points="164,-88 164,-118 289,-118 289,-88 164,-88"/>
<text text-anchor="start" x="172" y="-106" font-family="Helvetica,sans-Serif" font-size="10.00">onion::CreateOperator</text>
<text text-anchor="middle" x="226.5" y="-95" font-family="Helvetica,sans-Serif" font-size="10.00">&lt; solution_t &gt;</text>
</a>
</g>
</g>
<!-- Node0&#45;&gt;Node3 -->
<g id="edge3" class="edge">
<title>Node0&#45;&gt;Node3</title>
<path fill="none" stroke="midnightblue" d="M120.95,-99.24C135.01,-99.75 149.93,-100.28 163.95,-100.79"/>
<polygon fill="midnightblue" stroke="midnightblue" points="121,-95.74 110.88,-98.88 120.75,-102.74 121,-95.74"/>
</g>
<!-- Node2 -->
<g id="node3" class="node">
<title>Node2</title>
<g id="a_node3"><a xlink:href="classonion_1_1cops_1_1tsp_1_1array_1_1_create_random.html" target="_top" xlink:title=" ">
<polygon fill="white" stroke="black" points="338,-39 338,-69 509,-69 509,-39 338,-39"/>
<text text-anchor="start" x="346" y="-57" font-family="Helvetica,sans-Serif" font-size="10.00">onion::cops::tsp::array</text>
<text text-anchor="middle" x="423.5" y="-46" font-family="Helvetica,sans-Serif" font-size="10.00">::CreateRandom&lt; num_cities &gt;</text>
</a>
</g>
</g>
<!-- Node1&#45;&gt;Node2 -->
<g id="edge2" class="edge">
<title>Node1&#45;&gt;Node2</title>
<path fill="none" stroke="midnightblue" d="M309.61,-54C318.96,-54 328.5,-54 337.88,-54"/>
<polygon fill="midnightblue" stroke="midnightblue" points="309.56,-50.5 299.56,-54 309.56,-57.5 309.56,-50.5"/>
</g>
<!-- Node8 -->
<g id="node5" class="node">
<title>Node8</title>
<g id="a_node5"><a xlink:href="classonion_1_1_non_copyable.html" target="_top" xlink:title=" ">
<polygon fill="white" stroke="black" points="0,-44.5 0,-63.5 115,-63.5 115,-44.5 0,-44.5"/>
<text text-anchor="middle" x="57.5" y="-51.5" font-family="Helvetica,sans-Serif" font-size="10.00">onion::NonCopyable</text>
</a>
</g>
</g>
<!-- Node8&#45;&gt;Node1 -->
<g id="edge4" class="edge">
<title>Node8&#45;&gt;Node1</title>
<path fill="none" stroke="midnightblue" d="M125.3,-54C134.52,-54 144.02,-54 153.33,-54"/>
<polygon fill="midnightblue" stroke="midnightblue" points="125.04,-50.5 115.04,-54 125.04,-57.5 125.04,-50.5"/>
</g>
<!-- Node8&#45;&gt;Node3 -->
<g id="edge5" class="edge">
<title>Node8&#45;&gt;Node3</title>
<path fill="none" stroke="midnightblue" d="M100.95,-66.45C123.25,-73 150.76,-81.07 174.25,-87.96"/>
<polygon fill="midnightblue" stroke="midnightblue" points="101.68,-63.02 91.1,-63.56 99.71,-69.74 101.68,-63.02"/>
</g>
<!-- Node9 -->
<g id="node6" class="node">
<title>Node9</title>
<g id="a_node6"><a xlink:href="classonion_1_1_random_engine_proxy.html" target="_top" xlink:title="Creates and control the access to the global RandonEngine object.">
<polygon fill="white" stroke="black" points="151,-0.5 151,-19.5 302,-19.5 302,-0.5 151,-0.5"/>
<text text-anchor="middle" x="226.5" y="-7.5" font-family="Helvetica,sans-Serif" font-size="10.00">onion::RandomEngineProxy</text>
</a>
</g>
</g>
<!-- Node8&#45;&gt;Node9 -->
<g id="edge6" class="edge">
<title>Node8&#45;&gt;Node9</title>
<path fill="none" stroke="midnightblue" d="M103.69,-41.65C118.73,-37.57 135.57,-33.05 151,-29 162.88,-25.88 175.84,-22.55 187.57,-19.56"/>
<polygon fill="midnightblue" stroke="midnightblue" points="102.34,-38.39 93.61,-44.39 104.18,-45.14 102.34,-38.39"/>
</g>
</g>
</svg>
