<?xml version="1.0" encoding="UTF-8" standalone="no"?>
<!DOCTYPE svg PUBLIC "-//W3C//DTD SVG 1.1//EN"
 "http://www.w3.org/Graphics/SVG/1.1/DTD/svg11.dtd">
<!-- Generated by graphviz version 2.43.0 (0)
 -->
<!-- Title: Graphical Class Hierarchy Pages: 1 -->
<svg width="323pt" height="78pt"
 viewBox="0.00 0.00 323.00 77.50" xmlns="http://www.w3.org/2000/svg" xmlns:xlink="http://www.w3.org/1999/xlink">
<g id="graph0" class="graph" transform="scale(1 1) rotate(0) translate(4 73.5)">
<title>Graphical Class Hierarchy</title>
<polygon fill="white" stroke="transparent" points="-4,4 -4,-73.5 319,-73.5 319,4 -4,4"/>
<!-- Node0 -->
<g id="node1" class="node">
<title>Node0</title>
<g id="a_node1"><a xlink:href="classonion_1_1_random_engine.html" target="_top" xlink:title="Inteface class for random number generation.">
<polygon fill="white" stroke="black" points="0,-28 0,-47 123,-47 123,-28 0,-28"/>
<text text-anchor="middle" x="61.5" y="-35" font-family="Helvetica,sans-Serif" font-size="10.00">onion::RandomEngine</text>
</a>
</g>
</g>
<!-- Node1 -->
<g id="node2" class="node">
<title>Node1</title>
<g id="a_node2"><a xlink:href="classonion_1_1_random_legacy_c.html" target="_top" xlink:title="Implements the RandomEngine interface using legacy C functions from C stdlib.">
<polygon fill="white" stroke="black" points="171.5,-50 171.5,-69 302.5,-69 302.5,-50 171.5,-50"/>
<text text-anchor="middle" x="237" y="-57" font-family="Helvetica,sans-Serif" font-size="10.00">onion::RandomLegacyC</text>
</a>
</g>
</g>
<!-- Node0&#45;&gt;Node1 -->
<g id="edge1" class="edge">
<title>Node0&#45;&gt;Node1</title>
<path fill="none" stroke="midnightblue" d="M133.16,-46.46C145.75,-48.06 158.81,-49.71 171.22,-51.29"/>
<polygon fill="midnightblue" stroke="midnightblue" points="133.54,-42.98 123.18,-45.19 132.66,-49.92 133.54,-42.98"/>
</g>
<!-- Node2 -->
<g id="node3" class="node">
<title>Node2</title>
<g id="a_node3"><a xlink:href="classonion_1_1_random_s_t_l.html" target="_top" xlink:title="Implements the RandomEngine interface using the C++ STL facilities.">
<polygon fill="white" stroke="black" points="159,-0.5 159,-30.5 315,-30.5 315,-0.5 159,-0.5"/>
<text text-anchor="start" x="167" y="-18.5" font-family="Helvetica,sans-Serif" font-size="10.00">onion::RandomSTL&lt; random</text>
<text text-anchor="middle" x="237" y="-7.5" font-family="Helvetica,sans-Serif" font-size="10.00">_engine_t &gt;</text>
</a>
</g>
</g>
<!-- Node0&#45;&gt;Node2 -->
<g id="edge2" class="edge">
<title>Node0&#45;&gt;Node2</title>
<path fill="none" stroke="midnightblue" d="M133.33,-28.52C141.75,-27.45 150.38,-26.36 158.88,-25.28"/>
<polygon fill="midnightblue" stroke="midnightblue" points="132.66,-25.08 123.18,-29.81 133.54,-32.02 132.66,-25.08"/>
</g>
</g>
</svg>
